<?xml version="1.0" standalone="no"?><!DOCTYPE svg PUBLIC "-//W3C//DTD SVG 1.1//EN" "http://www.w3.org/Graphics/SVG/1.1/DTD/svg11.dtd"><svg t="1596163880180" class="icon" viewBox="0 0 1024 1024" version="1.1" xmlns="http://www.w3.org/2000/svg" p-id="2806" xmlns:xlink="http://www.w3.org/1999/xlink" width="16" height="16"><defs><style type="text/css"></style></defs><path d="M863.7 416.2c0-194-157.7-351.7-351.7-351.7S160.3 222.2 160.3 416.2c0 183.1 140.8 334.3 320.4 350.2 0 0.5-0.5 1-0.5 1.5v64.2H352.3c-17.4 0-31.8 14.4-31.8 31.8 0 17.9 14.4 31.8 31.8 31.8h127.9v31.8c0 17.9 14.4 31.8 31.8 31.8s31.8-14.4 31.8-31.8v-31.8h127.9c17.9 0 31.8-14.4 31.8-31.8 0-17.9-14.4-31.8-31.8-31.8H543.8V768c0-0.5-0.5-1-0.5-1.5 179.6-16 320.4-166.7 320.4-350.3zM512 704.3c-158.7 0-288-129.3-288-288s129.3-288 288-288 288 129.3 288 288-129.3 288-288 288z" fill="#d4237a" p-id="2807"></path></svg>